<svg xmlns="http://www.w3.org/2000/svg" xmlns:xlink="http://www.w3.org/1999/xlink" version="1.1" width="1000" height="1000" viewBox="0 0 1000 1000" xml:space="preserve">
<desc>Created with Fabric.js 3.5.0</desc>
<defs>
</defs>
<rect x="0" y="0" width="100%" height="100%" fill="#ffffff"/>
<g transform="matrix(-21.3703 0 0 -21.3703 499.9992 499.9995)" id="540950">
<g style="" vector-effect="non-scaling-stroke">
		<g transform="matrix(1.25 0 0 1.25 -0.0081 -8.4089)" id="path12">
<path style="stroke: none; stroke-width: 1; stroke-dasharray: none; stroke-linecap: butt; stroke-dashoffset: 0; stroke-linejoin: miter; stroke-miterlimit: 4; is-custom-font: none; font-file-url: none; fill: rgb(0,0,0); fill-rule: nonzero; opacity: 1;" transform=" translate(-2.7188, 2.7266)" d="m 4.828125 -2.71875 c 0 -1.171875 -0.953125 -2.125 -2.109375 -2.125 c -1.1875 0 -2.109375 0.96875 -2.109375 2.125 c 0 1.15625 0.96875 2.109375 2.109375 2.109375 c 1.1875 0 2.109375 -0.96875 2.109375 -2.109375 z m 0 0" stroke-linecap="round"/>
</g>
		<g transform="matrix(1.25 0 0 -1.25 0.0022 -3.8841)" id="path46">
<path style="stroke: rgb(0,0,0); stroke-width: 0.398; stroke-dasharray: none; stroke-linecap: butt; stroke-dashoffset: 0; stroke-linejoin: miter; stroke-miterlimit: 10; is-custom-font: none; font-file-url: none; fill: none; fill-rule: nonzero; opacity: 1;" transform=" translate(0.001, -4.2197)" d="m -0.001 0.00096875 l 0 8.43750025" stroke-linecap="round"/>
</g>
		<g transform="matrix(1.25 0 0 -1.25 -9.1555 -8.3714)" id="path48">
<path style="stroke: rgb(0,0,0); stroke-width: 0.398; stroke-dasharray: none; stroke-linecap: butt; stroke-dashoffset: 0; stroke-linejoin: miter; stroke-miterlimit: 10; is-custom-font: none; font-file-url: none; fill: none; fill-rule: nonzero; opacity: 1;" transform=" translate(-7.8908, 0.0004)" d="m -0.00175 -0.0004375 l 15.785156 0" stroke-linecap="round"/>
</g>
		<g transform="matrix(1.25 0 0 -1.25 -9.1555 -8.3714)" id="path50">
<path style="stroke: rgb(0,0,0); stroke-width: 0.398; stroke-dasharray: none; stroke-linecap: butt; stroke-dashoffset: 0; stroke-linejoin: miter; stroke-miterlimit: 10; is-custom-font: none; font-file-url: none; fill: none; fill-rule: nonzero; opacity: 1;" transform=" translate(-7.8908, 0.0004)" d="m -0.00175 -0.0004375 l 15.785156 0" stroke-linecap="round"/>
</g>
		<g transform="matrix(1.25 0 0 -1.25 9.1623 -8.3714)" id="path52">
<path style="stroke: rgb(0,0,0); stroke-width: 0.398; stroke-dasharray: none; stroke-linecap: butt; stroke-dashoffset: 0; stroke-linejoin: miter; stroke-miterlimit: 10; is-custom-font: none; font-file-url: none; fill: none; fill-rule: nonzero; opacity: 1;" transform=" translate(-7.8921, 0.0004)" d="m 0.0015 -0.0004375 l 15.78125 0" stroke-linecap="round"/>
</g>
		<g transform="matrix(1.25 0 0 -1.25 2.7292 5.8083)" id="path54">
<path style="stroke: rgb(0,0,0); stroke-width: 0.398; stroke-dasharray: none; stroke-linecap: butt; stroke-dashoffset: 0; stroke-linejoin: miter; stroke-miterlimit: 10; is-custom-font: none; font-file-url: none; fill: none; fill-rule: nonzero; opacity: 1;" transform=" translate(-2.1806, -0.0018)" d="m -0.001 0.0018125 l 4.363281 0" stroke-linecap="round"/>
</g>
		<g transform="matrix(1.25 0 0 -1.25 -2.7249 5.8083)" id="path56">
<path style="stroke: rgb(0,0,0); stroke-width: 0.398; stroke-dasharray: none; stroke-linecap: butt; stroke-dashoffset: 0; stroke-linejoin: miter; stroke-miterlimit: 10; is-custom-font: none; font-file-url: none; fill: none; fill-rule: nonzero; opacity: 1;" transform=" translate(-2.1814, -0.0018)" d="m -0.00028125 0.0018125 l 4.36328125 0" stroke-linecap="round"/>
</g>
		<g transform="matrix(1.25 0 0 -1.25 0.0022 3.3547)" id="path58">
<path style="stroke: rgb(0,0,0); stroke-width: 0.398; stroke-dasharray: none; stroke-linecap: butt; stroke-dashoffset: 0; stroke-linejoin: miter; stroke-miterlimit: 10; is-custom-font: none; font-file-url: none; fill: none; fill-rule: nonzero; opacity: 1;" transform=" translate(0.001, -1.9647)" d="m -0.001 0.0018125 l 0 3.9257815" stroke-linecap="round"/>
</g>
		<g transform="matrix(1.25 0 0 -1.25 0.0022 8.2644)" id="path60">
<path style="stroke: rgb(0,0,0); stroke-width: 0.398; stroke-dasharray: none; stroke-linecap: butt; stroke-dashoffset: 0; stroke-linejoin: miter; stroke-miterlimit: 10; is-custom-font: none; font-file-url: none; fill: none; fill-rule: nonzero; opacity: 1;" transform=" translate(0.001, -1.964)" d="m -0.001 -0.000875 l 0 3.929687" stroke-linecap="round"/>
</g>
		<g transform="matrix(1.25 0 0 1.25 -4.2454 4.053)" id="path18">
<path style="stroke: none; stroke-width: 1; stroke-dasharray: none; stroke-linecap: butt; stroke-dashoffset: 0; stroke-linejoin: miter; stroke-miterlimit: 4; is-custom-font: none; font-file-url: none; fill: rgb(0,0,0); fill-rule: nonzero; opacity: 1;" transform=" translate(-0.5859, 1.4141)" d="M -0.203125 0 C -0.203125 0.125 -0.125 0.203125 0 0.203125 C 0.125 0.203125 0.203125 0.125 0.203125 0 c 0 -1.0625 0.4375 -2 1.109375 -2.6875 C 1.359375 -2.734375 1.375 -2.765625 1.375 -2.828125 C 1.375 -2.875 1.359375 -2.9375 1.3125 -2.96875 C 1.28125 -3.015625 1.21875 -3.03125 1.171875 -3.03125 c -0.0625 0 -0.09375 0.015625 -0.140625 0.0625 c -0.75 0.75 -1.234375 1.8125 -1.234375 2.96875 z m 0 0" stroke-linecap="round"/>
</g>
		<g transform="matrix(1.25 0 0 1.25 -1.7507 1.5628)" id="path21">
<path style="stroke: none; stroke-width: 1; stroke-dasharray: none; stroke-linecap: butt; stroke-dashoffset: 0; stroke-linejoin: miter; stroke-miterlimit: 4; is-custom-font: none; font-file-url: none; fill: rgb(0,0,0); fill-rule: nonzero; opacity: 1;" transform=" translate(-1.4141, 3.4063)" d="m 2.828125 -4.1875 c -1.15625 0 -2.203125 0.453125 -2.96875 1.21875 c -0.03125 0.03125 -0.0625 0.09375 -0.0625 0.140625 c 0 0.0625 0.03125 0.09375 0.0625 0.140625 C -0.09375 -2.65625 -0.0625 -2.625 0 -2.625 c 0.0625 0 0.09375 -0.03125 0.140625 -0.0625 c 0.703125 -0.6875 1.640625 -1.09375 2.6875 -1.09375 c 0.109375 0 0.203125 -0.109375 0.203125 -0.203125 c 0 -0.125 -0.09375 -0.203125 -0.203125 -0.203125 z m 0 0" stroke-linecap="round"/>
</g>
		<g transform="matrix(1.25 0 0 1.25 1.7711 1.5628)" id="path24">
<path style="stroke: none; stroke-width: 1; stroke-dasharray: none; stroke-linecap: butt; stroke-dashoffset: 0; stroke-linejoin: miter; stroke-miterlimit: 4; is-custom-font: none; font-file-url: none; fill: rgb(0,0,0); fill-rule: nonzero; opacity: 1;" transform=" translate(-1.4141, 3.4063)" d="m 0 -4.1875 c -0.125 0 -0.203125 0.078125 -0.203125 0.203125 c 0 0.09375 0.078125 0.203125 0.203125 0.203125 c 1.0625 0 2 0.40625 2.6875 1.09375 c 0.046875 0.03125 0.078125 0.0625 0.140625 0.0625 c 0.046875 0 0.109375 -0.03125 0.140625 -0.0625 c 0.046875 -0.046875 0.0625 -0.078125 0.0625 -0.140625 C 3.03125 -2.875 3.015625 -2.9375 2.96875 -2.96875 C 2.21875 -3.734375 1.15625 -4.1875 0 -4.1875 z m 0 0" stroke-linecap="round"/>
</g>
		<g transform="matrix(1.25 0 0 1.25 4.2576 4.053)" id="path27">
<path style="stroke: none; stroke-width: 1; stroke-dasharray: none; stroke-linecap: butt; stroke-dashoffset: 0; stroke-linejoin: miter; stroke-miterlimit: 4; is-custom-font: none; font-file-url: none; fill: rgb(0,0,0); fill-rule: nonzero; opacity: 1;" transform=" translate(-0.5859, 1.4141)" d="M 1.375 0 C 1.375 -1.15625 0.890625 -2.21875 0.140625 -2.96875 C 0.09375 -3.015625 0.0625 -3.03125 0 -3.03125 c -0.0625 0 -0.09375 0.015625 -0.140625 0.0625 c -0.03125 0.03125 -0.0625 0.09375 -0.0625 0.140625 c 0 0.0625 0.03125 0.09375 0.0625 0.140625 c 0.703125 0.6875 1.125 1.625 1.125 2.6875 c 0 0.125 0.078125 0.203125 0.1875 0.203125 C 1.28125 0.203125 1.375 0.125 1.375 0 z m 0 0" stroke-linecap="round"/>
</g>
		<g transform="matrix(1.25 0 0 1.25 -4.2454 7.5882)" id="path30">
<path style="stroke: none; stroke-width: 1; stroke-dasharray: none; stroke-linecap: butt; stroke-dashoffset: 0; stroke-linejoin: miter; stroke-miterlimit: 4; is-custom-font: none; font-file-url: none; fill: rgb(0,0,0); fill-rule: nonzero; opacity: 1;" transform=" translate(-0.5859, -1.4141)" d="m -0.203125 0 c 0 1.15625 0.484375 2.21875 1.234375 2.96875 c 0.046875 0.046875 0.078125 0.0625 0.140625 0.0625 c 0.046875 0 0.109375 -0.015625 0.140625 -0.0625 C 1.359375 2.9375 1.375 2.875 1.375 2.828125 C 1.375 2.765625 1.359375 2.734375 1.3125 2.6875 C 0.640625 2 0.203125 1.0625 0.203125 0 C 0.203125 -0.125 0.125 -0.203125 0 -0.203125 C -0.125 -0.203125 -0.203125 -0.125 -0.203125 0 z m 0 0" stroke-linecap="round"/>
</g>
		<g transform="matrix(1.25 0 0 1.25 -1.7507 10.0784)" id="path33">
<path style="stroke: none; stroke-width: 1; stroke-dasharray: none; stroke-linecap: butt; stroke-dashoffset: 0; stroke-linejoin: miter; stroke-miterlimit: 4; is-custom-font: none; font-file-url: none; fill: rgb(0,0,0); fill-rule: nonzero; opacity: 1;" transform=" translate(-1.4141, -3.4063)" d="M 2.828125 4.1875 C 2.9375 4.1875 3.03125 4.109375 3.03125 3.984375 C 3.03125 3.890625 2.9375 3.78125 2.828125 3.78125 C 1.78125 3.78125 0.84375 3.375 0.140625 2.6875 C 0.09375 2.65625 0.0625 2.625 0 2.625 c -0.0625 0 -0.09375 0.03125 -0.140625 0.0625 c -0.03125 0.046875 -0.0625 0.078125 -0.0625 0.140625 c 0 0.046875 0.03125 0.109375 0.0625 0.140625 c 0.765625 0.765625 1.8125 1.21875 2.96875 1.21875 z m 0 0" stroke-linecap="round"/>
</g>
		<g transform="matrix(1.25 0 0 1.25 1.7711 10.0784)" id="path36">
<path style="stroke: none; stroke-width: 1; stroke-dasharray: none; stroke-linecap: butt; stroke-dashoffset: 0; stroke-linejoin: miter; stroke-miterlimit: 4; is-custom-font: none; font-file-url: none; fill: rgb(0,0,0); fill-rule: nonzero; opacity: 1;" transform=" translate(-1.4141, -3.4063)" d="m 0 4.1875 c 1.15625 0 2.21875 -0.453125 2.96875 -1.21875 C 3.015625 2.9375 3.03125 2.875 3.03125 2.828125 C 3.03125 2.765625 3.015625 2.734375 2.96875 2.6875 C 2.9375 2.65625 2.875 2.625 2.828125 2.625 C 2.765625 2.625 2.734375 2.65625 2.6875 2.6875 C 2 3.375 1.0625 3.78125 0 3.78125 c -0.125 0 -0.203125 0.109375 -0.203125 0.203125 c 0 0.125 0.078125 0.203125 0.203125 0.203125 z m 0 0" stroke-linecap="round"/>
</g>
		<g transform="matrix(1.25 0 0 1.25 4.2576 7.5882)" id="path39">
<path style="stroke: none; stroke-width: 1; stroke-dasharray: none; stroke-linecap: butt; stroke-dashoffset: 0; stroke-linejoin: miter; stroke-miterlimit: 4; is-custom-font: none; font-file-url: none; fill: rgb(0,0,0); fill-rule: nonzero; opacity: 1;" transform=" translate(-0.5859, -1.4141)" d="m 1.375 0 c 0 -0.125 -0.09375 -0.203125 -0.203125 -0.203125 c -0.109375 0 -0.1875 0.078125 -0.1875 0.203125 c 0 1.0625 -0.421875 2 -1.125 2.6875 c -0.03125 0.046875 -0.0625 0.078125 -0.0625 0.140625 c 0 0.046875 0.03125 0.109375 0.0625 0.140625 C -0.09375 3.015625 -0.0625 3.03125 0 3.03125 c 0.0625 0 0.09375 -0.015625 0.140625 -0.0625 C 0.890625 2.21875 1.375 1.15625 1.375 0 z m 0 0" stroke-linecap="round"/>
</g>
		<g transform="matrix(1.25 0 0 -1.25 -12.2024 5.8083)" id="path82">
<path style="stroke: rgb(0,0,0); stroke-width: 0.398; stroke-dasharray: none; stroke-linecap: butt; stroke-dashoffset: 0; stroke-linejoin: miter; stroke-miterlimit: 10; is-custom-font: none; font-file-url: none; fill: none; fill-rule: nonzero; opacity: 1;" transform=" translate(-5.4533, -0.0018)" d="m -0.00175 0.0018125 l 10.910156 0" stroke-linecap="round"/>
</g>
		<g transform="matrix(1.25 0 0 -1.25 12.2068 5.8083)" id="path84">
<path style="stroke: rgb(0,0,0); stroke-width: 0.398; stroke-dasharray: none; stroke-linecap: butt; stroke-dashoffset: 0; stroke-linejoin: miter; stroke-miterlimit: 10; is-custom-font: none; font-file-url: none; fill: none; fill-rule: nonzero; opacity: 1;" transform=" translate(-5.4537, -0.0018)" d="m -0.00140625 0.0018125 l 10.91015625 0" stroke-linecap="round"/>
</g>
</g>
</g>
</svg>