<svg xmlns="http://www.w3.org/2000/svg" xmlns:xlink="http://www.w3.org/1999/xlink" version="1.1" width="1000" height="1000" viewBox="0 0 1000 1000" xml:space="preserve">
<desc>Created with Fabric.js 3.5.0</desc>
<defs>
</defs>
<rect x="0" y="0" width="100%" height="100%" fill="#ffffff"/>
<g transform="matrix(17.3524 0 0 17.3524 500.0006 500.0003)" id="194778">
<g style="" vector-effect="non-scaling-stroke">
		<g transform="matrix(1.25 0 0 1.25 0.0486 0.0025)" id="path12">
<path style="stroke: none; stroke-width: 1; stroke-dasharray: none; stroke-linecap: butt; stroke-dashoffset: 0; stroke-linejoin: miter; stroke-miterlimit: 4; is-custom-font: none; font-file-url: none; fill: rgb(0,0,0); fill-rule: nonzero; opacity: 1;" transform=" translate(-5.0156, 3.7266)" d="m 8.328125 -6.609375 c 0.09375 -0.390625 0.109375 -0.5 0.90625 -0.5 c 0.28125 0 0.375 0 0.375 -0.21875 c 0 -0.125 -0.125 -0.125 -0.15625 -0.125 c -0.296875 0 -1.09375 0.03125 -1.390625 0.03125 c -0.3125 0 -1.09375 -0.03125 -1.40625 -0.03125 c -0.09375 0 -0.203125 0 -0.203125 0.21875 c 0 0.125 0.09375 0.125 0.296875 0.125 c 0.015625 0 0.234375 0 0.421875 0.015625 c 0.1875 0.03125 0.28125 0.03125 0.28125 0.171875 c 0 0.046875 0 0.078125 -0.03125 0.21875 l -0.65625 2.65625 l -3.328125 0 l 0.640625 -2.5625 c 0.09375 -0.390625 0.125 -0.5 0.921875 -0.5 c 0.28125 0 0.359375 0 0.359375 -0.21875 c 0 -0.125 -0.109375 -0.125 -0.140625 -0.125 c -0.3125 0 -1.09375 0.03125 -1.40625 0.03125 c -0.3125 0 -1.09375 -0.03125 -1.40625 -0.03125 c -0.078125 0 -0.203125 0 -0.203125 0.21875 c 0 0.125 0.09375 0.125 0.3125 0.125 c 0.015625 0 0.21875 0 0.40625 0.015625 c 0.203125 0.03125 0.296875 0.03125 0.296875 0.171875 c 0 0.046875 -0.015625 0.078125 -0.046875 0.21875 L 1.71875 -0.84375 c -0.109375 0.421875 -0.140625 0.5 -1 0.5 c -0.1875 0 -0.296875 0 -0.296875 0.21875 C 0.421875 0 0.5625 0 0.578125 0 c 0.3125 0 1.078125 -0.03125 1.390625 -0.03125 c 0.21875 0 0.46875 0.015625 0.6875 0.015625 C 2.90625 -0.015625 3.140625 0 3.375 0 c 0.078125 0 0.21875 0 0.21875 -0.21875 c 0 -0.125 -0.109375 -0.125 -0.3125 -0.125 c -0.40625 0 -0.703125 0 -0.703125 -0.1875 c 0 -0.0625 0.015625 -0.125 0.03125 -0.1875 l 0.734375 -2.984375 l 3.328125 0 c -0.453125 1.8125 -0.703125 2.84375 -0.75 3 c -0.109375 0.359375 -0.3125 0.359375 -1 0.359375 c -0.15625 0 -0.25 0 -0.25 0.21875 c 0 0.125 0.125 0.125 0.15625 0.125 c 0.296875 0 1.078125 -0.03125 1.375 -0.03125 c 0.234375 0 0.46875 0.015625 0.703125 0.015625 C 7.140625 -0.015625 7.390625 0 7.609375 0 c 0.09375 0 0.21875 0 0.21875 -0.21875 c 0 -0.125 -0.09375 -0.125 -0.296875 -0.125 c -0.40625 0 -0.71875 0 -0.71875 -0.1875 c 0 -0.0625 0.03125 -0.125 0.03125 -0.1875 l 1.484375 -5.890625 z m 0 0" stroke-linecap="round"/>
</g>
		<g transform="matrix(1.25 0 0 -1.25 -0.001 -8.7488)" id="path19">
<path style="stroke: rgb(0,0,0); stroke-width: 0.398; stroke-dasharray: none; stroke-linecap: butt; stroke-dashoffset: 0; stroke-linejoin: miter; stroke-miterlimit: 10; is-custom-font: none; font-file-url: none; fill: none; fill-rule: nonzero; opacity: 1;" transform=" translate(-8.249, 0.0004)" d="m -0.001 -0.0004375 l 16.5 0" stroke-linecap="round"/>
</g>
		<g transform="matrix(1.25 0 0 -1.25 10.3115 0.0013)" id="path21">
<path style="stroke: rgb(0,0,0); stroke-width: 0.398; stroke-dasharray: none; stroke-linecap: butt; stroke-dashoffset: 0; stroke-linejoin: miter; stroke-miterlimit: 10; is-custom-font: none; font-file-url: none; fill: none; fill-rule: nonzero; opacity: 1;" transform=" translate(0.001, -6.9996)" d="m -0.001 -0.0004375 l 0 14.0000005" stroke-linecap="round"/>
</g>
		<g transform="matrix(1.25 0 0 -1.25 -0.001 8.7512)" id="path23">
<path style="stroke: rgb(0,0,0); stroke-width: 0.398; stroke-dasharray: none; stroke-linecap: butt; stroke-dashoffset: 0; stroke-linejoin: miter; stroke-miterlimit: 10; is-custom-font: none; font-file-url: none; fill: none; fill-rule: nonzero; opacity: 1;" transform=" translate(-8.249, 0.0004)" d="m -0.001 -0.0004375 l 16.5 0" stroke-linecap="round"/>
</g>
		<g transform="matrix(1.25 0 0 -1.25 -10.3135 0.0013)" id="path25">
<path style="stroke: rgb(0,0,0); stroke-width: 0.398; stroke-dasharray: none; stroke-linecap: butt; stroke-dashoffset: 0; stroke-linejoin: miter; stroke-miterlimit: 10; is-custom-font: none; font-file-url: none; fill: none; fill-rule: nonzero; opacity: 1;" transform=" translate(0.001, -6.9996)" d="m -0.001 -0.0004375 l 0 14.0000005" stroke-linecap="round"/>
</g>
		<g transform="matrix(1.25 0 0 -1.25 -17.1298 0.0013)" id="path27">
<path style="stroke: rgb(0,0,0); stroke-width: 0.398; stroke-dasharray: none; stroke-linecap: butt; stroke-dashoffset: 0; stroke-linejoin: miter; stroke-miterlimit: 10; is-custom-font: none; font-file-url: none; fill: none; fill-rule: nonzero; opacity: 1;" transform=" translate(-5.4549, 0.0004)" d="m 0.00175 -0.0004375 l 10.90625 0" stroke-linecap="round"/>
</g>
		<g transform="matrix(1.25 0 0 -1.25 17.1304 0.0013)" id="path29">
<path style="stroke: rgb(0,0,0); stroke-width: 0.398; stroke-dasharray: none; stroke-linecap: butt; stroke-dashoffset: 0; stroke-linejoin: miter; stroke-miterlimit: 10; is-custom-font: none; font-file-url: none; fill: none; fill-rule: nonzero; opacity: 1;" transform=" translate(-5.4541, 0.0004)" d="m -0.001 -0.0004375 l 10.910156 0" stroke-linecap="round"/>
</g>
</g>
</g>
</svg>